<svg xmlns="http://www.w3.org/2000/svg" xmlns:xlink="http://www.w3.org/1999/xlink" width="50" zoomAndPan="magnify" viewBox="0 0 37.5 37.499999" height="50" preserveAspectRatio="xMidYMid meet" version="1.0"><defs><clipPath id="e731ce4444"><path d="M 0 0 L 37.007812 0 L 37.007812 37.007812 L 0 37.007812 Z M 0 0 " clip-rule="nonzero"/></clipPath><clipPath id="4101cedf9d"><path d="M 32.699219 40.664062 L -3.175781 32.695312 L 4.789062 -3.179688 L 40.667969 4.789062 Z M 32.699219 40.664062 " clip-rule="nonzero"/></clipPath><clipPath id="0ae01dbe24"><path d="M 32.699219 40.664062 L -3.175781 32.695312 L 4.789062 -3.179688 L 40.667969 4.789062 Z M 32.699219 40.664062 " clip-rule="nonzero"/></clipPath><clipPath id="1d8b7c30d2"><path d="M 0.804688 14.757812 C 0.9375 14.171875 1.097656 13.589844 1.285156 13.019531 C 1.472656 12.445312 1.6875 11.886719 1.929688 11.335938 C 2.171875 10.785156 2.441406 10.246094 2.734375 9.722656 C 3.03125 9.199219 3.351562 8.6875 3.695312 8.195312 C 4.042969 7.703125 4.410156 7.230469 4.804688 6.773438 C 5.195312 6.316406 5.609375 5.878906 6.042969 5.464844 C 6.476562 5.046875 6.933594 4.652344 7.40625 4.28125 C 7.878906 3.910156 8.371094 3.5625 8.878906 3.242188 C 9.386719 2.917969 9.90625 2.621094 10.445312 2.347656 C 10.980469 2.078125 11.53125 1.832031 12.089844 1.613281 C 12.652344 1.394531 13.222656 1.207031 13.800781 1.042969 C 14.382812 0.882812 14.96875 0.75 15.5625 0.644531 C 16.152344 0.539062 16.75 0.464844 17.351562 0.421875 C 17.949219 0.375 18.550781 0.359375 19.152344 0.371094 C 19.753906 0.386719 20.355469 0.425781 20.953125 0.5 C 21.546875 0.570312 22.140625 0.671875 22.730469 0.804688 C 23.316406 0.933594 23.894531 1.09375 24.46875 1.28125 C 25.039062 1.46875 25.601562 1.683594 26.152344 1.925781 C 26.703125 2.167969 27.238281 2.4375 27.765625 2.734375 C 28.289062 3.027344 28.796875 3.347656 29.289062 3.695312 C 29.78125 4.039062 30.257812 4.410156 30.714844 4.800781 C 31.171875 5.191406 31.605469 5.605469 32.023438 6.039062 C 32.4375 6.476562 32.832031 6.929688 33.203125 7.402344 C 33.574219 7.875 33.921875 8.367188 34.246094 8.875 C 34.570312 9.382812 34.867188 9.90625 35.136719 10.441406 C 35.410156 10.980469 35.65625 11.527344 35.871094 12.089844 C 36.089844 12.648438 36.28125 13.21875 36.441406 13.800781 C 36.605469 14.378906 36.738281 14.964844 36.839844 15.558594 C 36.945312 16.152344 37.019531 16.746094 37.066406 17.347656 C 37.113281 17.949219 37.128906 18.546875 37.113281 19.148438 C 37.101562 19.75 37.058594 20.351562 36.988281 20.949219 C 36.914062 21.546875 36.8125 22.136719 36.683594 22.726562 C 36.550781 23.3125 36.394531 23.894531 36.207031 24.464844 C 36.019531 25.035156 35.804688 25.597656 35.558594 26.148438 C 35.316406 26.699219 35.046875 27.238281 34.753906 27.761719 C 34.457031 28.285156 34.136719 28.792969 33.792969 29.289062 C 33.445312 29.78125 33.078125 30.253906 32.6875 30.710938 C 32.292969 31.167969 31.878906 31.605469 31.445312 32.019531 C 31.011719 32.4375 30.554688 32.832031 30.082031 33.203125 C 29.609375 33.574219 29.117188 33.921875 28.609375 34.242188 C 28.101562 34.566406 27.582031 34.863281 27.042969 35.136719 C 26.507812 35.40625 25.957031 35.652344 25.398438 35.871094 C 24.835938 36.089844 24.265625 36.277344 23.6875 36.441406 C 23.105469 36.601562 22.519531 36.734375 21.929688 36.839844 C 21.335938 36.941406 20.738281 37.019531 20.140625 37.0625 C 19.539062 37.109375 18.9375 37.125 18.335938 37.113281 C 17.734375 37.097656 17.136719 37.054688 16.539062 36.984375 C 15.941406 36.910156 15.347656 36.808594 14.761719 36.679688 C 14.171875 36.550781 13.59375 36.390625 13.019531 36.203125 C 12.449219 36.015625 11.886719 35.800781 11.335938 35.558594 C 10.785156 35.316406 10.25 35.046875 9.726562 34.75 C 9.199219 34.457031 8.691406 34.136719 8.199219 33.789062 C 7.707031 33.445312 7.230469 33.074219 6.773438 32.683594 C 6.316406 32.292969 5.882812 31.878906 5.464844 31.441406 C 5.050781 31.007812 4.65625 30.554688 4.285156 30.082031 C 3.914062 29.605469 3.566406 29.117188 3.242188 28.609375 C 2.921875 28.101562 2.621094 27.578125 2.351562 27.042969 C 2.078125 26.503906 1.835938 25.957031 1.617188 25.394531 C 1.398438 24.832031 1.207031 24.261719 1.046875 23.683594 C 0.882812 23.105469 0.75 22.519531 0.648438 21.925781 C 0.542969 21.332031 0.46875 20.738281 0.421875 20.136719 C 0.375 19.535156 0.359375 18.933594 0.375 18.332031 C 0.386719 17.730469 0.429688 17.132812 0.503906 16.535156 C 0.574219 15.9375 0.675781 15.34375 0.804688 14.757812 Z M 0.804688 14.757812 " clip-rule="nonzero"/></clipPath><linearGradient x1="-0.0937096" gradientTransform="matrix(-35.875702, -7.968444, 7.968444, -35.875702, 32.698108, 40.664008)" y1="-0.0927909" x2="1.101823" gradientUnits="userSpaceOnUse" y2="1.091021" id="37f1d8eafc"><stop stop-opacity="1" stop-color="rgb(36.499023%, 53.69873%, 94.898987%)" offset="0"/><stop stop-opacity="1" stop-color="rgb(36.499023%, 53.69873%, 94.898987%)" offset="0.0625"/><stop stop-opacity="1" stop-color="rgb(36.499023%, 53.69873%, 94.898987%)" offset="0.078125"/><stop stop-opacity="1" stop-color="rgb(36.680603%, 53.622437%, 94.898987%)" offset="0.0859375"/><stop stop-opacity="1" stop-color="rgb(37.052917%, 53.466797%, 94.898987%)" offset="0.09375"/><stop stop-opacity="1" stop-color="rgb(37.42981%, 53.309631%, 94.898987%)" offset="0.101563"/><stop stop-opacity="1" stop-color="rgb(37.808228%, 53.15094%, 94.898987%)" offset="0.109375"/><stop stop-opacity="1" stop-color="rgb(38.18512%, 52.993774%, 94.898987%)" offset="0.117188"/><stop stop-opacity="1" stop-color="rgb(38.562012%, 52.835083%, 94.898987%)" offset="0.125"/><stop stop-opacity="1" stop-color="rgb(38.94043%, 52.677917%, 94.898987%)" offset="0.132812"/><stop stop-opacity="1" stop-color="rgb(39.317322%, 52.519226%, 94.898987%)" offset="0.140625"/><stop stop-opacity="1" stop-color="rgb(39.69574%, 52.360535%, 94.898987%)" offset="0.148438"/><stop stop-opacity="1" stop-color="rgb(40.072632%, 52.203369%, 94.898987%)" offset="0.15625"/><stop stop-opacity="1" stop-color="rgb(40.449524%, 52.044678%, 94.898987%)" offset="0.164063"/><stop stop-opacity="1" stop-color="rgb(40.827942%, 51.887512%, 94.898987%)" offset="0.171875"/><stop stop-opacity="1" stop-color="rgb(41.204834%, 51.728821%, 94.898987%)" offset="0.179688"/><stop stop-opacity="1" stop-color="rgb(41.583252%, 51.571655%, 94.898987%)" offset="0.1875"/><stop stop-opacity="1" stop-color="rgb(41.960144%, 51.412964%, 94.898987%)" offset="0.195313"/><stop stop-opacity="1" stop-color="rgb(42.337036%, 51.255798%, 94.898987%)" offset="0.203125"/><stop stop-opacity="1" stop-color="rgb(42.715454%, 51.097107%, 94.898987%)" offset="0.210938"/><stop stop-opacity="1" stop-color="rgb(43.092346%, 50.939941%, 94.898987%)" offset="0.21875"/><stop stop-opacity="1" stop-color="rgb(43.470764%, 50.78125%, 94.898987%)" offset="0.226562"/><stop stop-opacity="1" stop-color="rgb(43.847656%, 50.624084%, 94.898987%)" offset="0.234375"/><stop stop-opacity="1" stop-color="rgb(44.224548%, 50.465393%, 94.898987%)" offset="0.242188"/><stop stop-opacity="1" stop-color="rgb(44.602966%, 50.308228%, 94.898987%)" offset="0.25"/><stop stop-opacity="1" stop-color="rgb(44.979858%, 50.149536%, 94.898987%)" offset="0.257813"/><stop stop-opacity="1" stop-color="rgb(45.358276%, 49.990845%, 94.898987%)" offset="0.265625"/><stop stop-opacity="1" stop-color="rgb(45.735168%, 49.833679%, 94.898987%)" offset="0.273438"/><stop stop-opacity="1" stop-color="rgb(46.112061%, 49.674988%, 94.898987%)" offset="0.28125"/><stop stop-opacity="1" stop-color="rgb(46.490479%, 49.517822%, 94.898987%)" offset="0.289062"/><stop stop-opacity="1" stop-color="rgb(46.867371%, 49.359131%, 94.898987%)" offset="0.296875"/><stop stop-opacity="1" stop-color="rgb(47.244263%, 49.201965%, 94.898987%)" offset="0.304688"/><stop stop-opacity="1" stop-color="rgb(47.622681%, 49.043274%, 94.898987%)" offset="0.3125"/><stop stop-opacity="1" stop-color="rgb(47.999573%, 48.886108%, 94.898987%)" offset="0.320312"/><stop stop-opacity="1" stop-color="rgb(48.377991%, 48.727417%, 94.898987%)" offset="0.328125"/><stop stop-opacity="1" stop-color="rgb(48.754883%, 48.570251%, 94.898987%)" offset="0.335938"/><stop stop-opacity="1" stop-color="rgb(49.131775%, 48.41156%, 94.898987%)" offset="0.34375"/><stop stop-opacity="1" stop-color="rgb(49.510193%, 48.254395%, 94.898987%)" offset="0.351563"/><stop stop-opacity="1" stop-color="rgb(49.887085%, 48.095703%, 94.898987%)" offset="0.359375"/><stop stop-opacity="1" stop-color="rgb(50.265503%, 47.938538%, 94.898987%)" offset="0.367188"/><stop stop-opacity="1" stop-color="rgb(50.642395%, 47.779846%, 94.898987%)" offset="0.375"/><stop stop-opacity="1" stop-color="rgb(51.019287%, 47.621155%, 94.898987%)" offset="0.382812"/><stop stop-opacity="1" stop-color="rgb(51.397705%, 47.463989%, 94.898987%)" offset="0.390625"/><stop stop-opacity="1" stop-color="rgb(51.774597%, 47.305298%, 94.898987%)" offset="0.398438"/><stop stop-opacity="1" stop-color="rgb(52.153015%, 47.148132%, 94.898987%)" offset="0.40625"/><stop stop-opacity="1" stop-color="rgb(52.529907%, 46.989441%, 94.898987%)" offset="0.414062"/><stop stop-opacity="1" stop-color="rgb(52.906799%, 46.832275%, 94.898987%)" offset="0.421875"/><stop stop-opacity="1" stop-color="rgb(53.285217%, 46.673584%, 94.898987%)" offset="0.429688"/><stop stop-opacity="1" stop-color="rgb(53.662109%, 46.516418%, 94.898987%)" offset="0.4375"/><stop stop-opacity="1" stop-color="rgb(54.040527%, 46.357727%, 94.898987%)" offset="0.445313"/><stop stop-opacity="1" stop-color="rgb(54.417419%, 46.200562%, 94.898987%)" offset="0.453125"/><stop stop-opacity="1" stop-color="rgb(54.794312%, 46.04187%, 94.898987%)" offset="0.460938"/><stop stop-opacity="1" stop-color="rgb(55.172729%, 45.884705%, 94.898987%)" offset="0.46875"/><stop stop-opacity="1" stop-color="rgb(55.549622%, 45.726013%, 94.898987%)" offset="0.476562"/><stop stop-opacity="1" stop-color="rgb(55.92804%, 45.568848%, 94.898987%)" offset="0.484375"/><stop stop-opacity="1" stop-color="rgb(56.304932%, 45.410156%, 94.898987%)" offset="0.492188"/><stop stop-opacity="1" stop-color="rgb(56.681824%, 45.251465%, 94.898987%)" offset="0.497548"/><stop stop-opacity="1" stop-color="rgb(56.871033%, 45.173645%, 94.898987%)" offset="0.5"/><stop stop-opacity="1" stop-color="rgb(57.060242%, 45.094299%, 94.898987%)" offset="0.502452"/><stop stop-opacity="1" stop-color="rgb(57.249451%, 45.014954%, 94.898987%)" offset="0.507812"/><stop stop-opacity="1" stop-color="rgb(57.437134%, 44.935608%, 94.898987%)" offset="0.515625"/><stop stop-opacity="1" stop-color="rgb(57.815552%, 44.778442%, 94.898987%)" offset="0.523438"/><stop stop-opacity="1" stop-color="rgb(58.192444%, 44.619751%, 94.898987%)" offset="0.53125"/><stop stop-opacity="1" stop-color="rgb(58.569336%, 44.462585%, 94.898987%)" offset="0.539062"/><stop stop-opacity="1" stop-color="rgb(58.947754%, 44.303894%, 94.898987%)" offset="0.546875"/><stop stop-opacity="1" stop-color="rgb(59.324646%, 44.146729%, 94.898987%)" offset="0.554687"/><stop stop-opacity="1" stop-color="rgb(59.703064%, 43.988037%, 94.898987%)" offset="0.5625"/><stop stop-opacity="1" stop-color="rgb(60.079956%, 43.830872%, 94.898987%)" offset="0.570312"/><stop stop-opacity="1" stop-color="rgb(60.456848%, 43.67218%, 94.898987%)" offset="0.578125"/><stop stop-opacity="1" stop-color="rgb(60.835266%, 43.515015%, 94.898987%)" offset="0.585938"/><stop stop-opacity="1" stop-color="rgb(61.212158%, 43.356323%, 94.898987%)" offset="0.59375"/><stop stop-opacity="1" stop-color="rgb(61.590576%, 43.199158%, 94.898987%)" offset="0.601562"/><stop stop-opacity="1" stop-color="rgb(61.967468%, 43.040466%, 94.898987%)" offset="0.609375"/><stop stop-opacity="1" stop-color="rgb(62.34436%, 42.881775%, 94.898987%)" offset="0.617188"/><stop stop-opacity="1" stop-color="rgb(62.722778%, 42.724609%, 94.898987%)" offset="0.625"/><stop stop-opacity="1" stop-color="rgb(63.09967%, 42.565918%, 94.898987%)" offset="0.632812"/><stop stop-opacity="1" stop-color="rgb(63.478088%, 42.408752%, 94.898987%)" offset="0.640625"/><stop stop-opacity="1" stop-color="rgb(63.85498%, 42.250061%, 94.898987%)" offset="0.648438"/><stop stop-opacity="1" stop-color="rgb(64.231873%, 42.092896%, 94.898987%)" offset="0.65625"/><stop stop-opacity="1" stop-color="rgb(64.610291%, 41.934204%, 94.898987%)" offset="0.664062"/><stop stop-opacity="1" stop-color="rgb(64.987183%, 41.777039%, 94.898987%)" offset="0.671875"/><stop stop-opacity="1" stop-color="rgb(65.365601%, 41.618347%, 94.898987%)" offset="0.679688"/><stop stop-opacity="1" stop-color="rgb(65.742493%, 41.461182%, 94.898987%)" offset="0.6875"/><stop stop-opacity="1" stop-color="rgb(66.119385%, 41.30249%, 94.898987%)" offset="0.695312"/><stop stop-opacity="1" stop-color="rgb(66.497803%, 41.145325%, 94.898987%)" offset="0.703125"/><stop stop-opacity="1" stop-color="rgb(66.874695%, 40.986633%, 94.898987%)" offset="0.710938"/><stop stop-opacity="1" stop-color="rgb(67.253113%, 40.829468%, 94.898987%)" offset="0.71875"/><stop stop-opacity="1" stop-color="rgb(67.630005%, 40.670776%, 94.898987%)" offset="0.726562"/><stop stop-opacity="1" stop-color="rgb(68.006897%, 40.512085%, 94.898987%)" offset="0.734375"/><stop stop-opacity="1" stop-color="rgb(68.385315%, 40.354919%, 94.898987%)" offset="0.742188"/><stop stop-opacity="1" stop-color="rgb(68.762207%, 40.196228%, 94.898987%)" offset="0.75"/><stop stop-opacity="1" stop-color="rgb(69.140625%, 40.039062%, 94.898987%)" offset="0.757812"/><stop stop-opacity="1" stop-color="rgb(69.517517%, 39.880371%, 94.898987%)" offset="0.765625"/><stop stop-opacity="1" stop-color="rgb(69.894409%, 39.723206%, 94.898987%)" offset="0.773438"/><stop stop-opacity="1" stop-color="rgb(70.272827%, 39.564514%, 94.898987%)" offset="0.78125"/><stop stop-opacity="1" stop-color="rgb(70.649719%, 39.407349%, 94.898987%)" offset="0.789062"/><stop stop-opacity="1" stop-color="rgb(71.028137%, 39.248657%, 94.898987%)" offset="0.796875"/><stop stop-opacity="1" stop-color="rgb(71.405029%, 39.091492%, 94.898987%)" offset="0.804688"/><stop stop-opacity="1" stop-color="rgb(71.781921%, 38.9328%, 94.898987%)" offset="0.8125"/><stop stop-opacity="1" stop-color="rgb(72.160339%, 38.775635%, 94.898987%)" offset="0.820312"/><stop stop-opacity="1" stop-color="rgb(72.537231%, 38.616943%, 94.898987%)" offset="0.828125"/><stop stop-opacity="1" stop-color="rgb(72.915649%, 38.459778%, 94.898987%)" offset="0.835938"/><stop stop-opacity="1" stop-color="rgb(73.292542%, 38.301086%, 94.898987%)" offset="0.84375"/><stop stop-opacity="1" stop-color="rgb(73.669434%, 38.142395%, 94.898987%)" offset="0.851562"/><stop stop-opacity="1" stop-color="rgb(74.047852%, 37.985229%, 94.898987%)" offset="0.859375"/><stop stop-opacity="1" stop-color="rgb(74.424744%, 37.826538%, 94.898987%)" offset="0.867188"/><stop stop-opacity="1" stop-color="rgb(74.801636%, 37.669373%, 94.898987%)" offset="0.875"/><stop stop-opacity="1" stop-color="rgb(75.180054%, 37.510681%, 94.898987%)" offset="0.882813"/><stop stop-opacity="1" stop-color="rgb(75.556946%, 37.353516%, 94.898987%)" offset="0.890625"/><stop stop-opacity="1" stop-color="rgb(75.935364%, 37.194824%, 94.898987%)" offset="0.898438"/><stop stop-opacity="1" stop-color="rgb(76.312256%, 37.037659%, 94.898987%)" offset="0.90625"/><stop stop-opacity="1" stop-color="rgb(76.689148%, 36.878967%, 94.898987%)" offset="0.914063"/><stop stop-opacity="1" stop-color="rgb(77.067566%, 36.721802%, 94.898987%)" offset="0.921875"/><stop stop-opacity="1" stop-color="rgb(77.427673%, 36.57074%, 94.898987%)" offset="0.9375"/><stop stop-opacity="1" stop-color="rgb(77.598572%, 36.499023%, 94.898987%)" offset="1"/></linearGradient><clipPath id="21a3f3ec8f"><path d="M 3.75 7.597656 L 26 7.597656 L 26 30.097656 L 3.75 30.097656 Z M 3.75 7.597656 " clip-rule="nonzero"/></clipPath><clipPath id="5fce32d28f"><path d="M 23 18 L 33 18 L 33 29 L 23 29 Z M 23 18 " clip-rule="nonzero"/></clipPath></defs><g clip-path="url(#e731ce4444)"><g clip-path="url(#4101cedf9d)"><g clip-path="url(#0ae01dbe24)"><g clip-path="url(#1d8b7c30d2)"><path fill="url(#37f1d8eafc)" d="M 35.285156 44.761719 L 44.765625 2.082031 L 2.082031 -7.398438 L -7.398438 35.285156 Z M 35.285156 44.761719 " fill-rule="nonzero"/></g></g></g></g><g clip-path="url(#21a3f3ec8f)"><path fill="#f2f5f9" d="M 14.789062 7.824219 C 14.792969 8.546875 14.863281 9.261719 15.003906 9.972656 C 15.144531 10.679688 15.351562 11.371094 15.625 12.039062 C 15.898438 12.707031 16.230469 13.339844 16.628906 13.941406 C 17.023438 14.542969 17.476562 15.097656 17.980469 15.609375 C 18.484375 16.121094 19.03125 16.578125 19.625 16.980469 C 20.214844 17.382812 20.84375 17.722656 21.5 18 C 22.160156 18.277344 22.839844 18.488281 23.535156 18.628906 C 24.234375 18.773438 24.941406 18.84375 25.65625 18.847656 L 25.832031 18.847656 L 25.65625 18.847656 C 24.941406 18.847656 24.234375 18.917969 23.535156 19.0625 C 22.839844 19.203125 22.160156 19.414062 21.5 19.691406 C 20.84375 19.96875 20.214844 20.308594 19.625 20.710938 C 19.03125 21.113281 18.484375 21.570312 17.980469 22.082031 C 17.476562 22.59375 17.023438 23.148438 16.628906 23.75 C 16.230469 24.351562 15.898438 24.984375 15.625 25.652344 C 15.347656 26.324219 15.144531 27.011719 15.003906 27.71875 C 14.863281 28.429688 14.792969 29.144531 14.789062 29.871094 C 14.789062 29.929688 14.789062 29.988281 14.789062 30.046875 C 14.789062 29.988281 14.789062 29.929688 14.789062 29.871094 C 14.789062 29.144531 14.71875 28.429688 14.578125 27.71875 C 14.4375 27.011719 14.230469 26.324219 13.957031 25.65625 C 13.683594 24.984375 13.347656 24.351562 12.953125 23.75 C 12.554688 23.148438 12.105469 22.59375 11.601562 22.082031 C 11.097656 21.570312 10.550781 21.113281 9.957031 20.710938 C 9.363281 20.308594 8.738281 19.96875 8.078125 19.691406 C 7.421875 19.414062 6.742188 19.203125 6.042969 19.0625 C 5.34375 18.917969 4.636719 18.847656 3.925781 18.847656 L 3.75 18.847656 L 3.925781 18.847656 C 4.636719 18.84375 5.34375 18.773438 6.042969 18.628906 C 6.742188 18.488281 7.421875 18.277344 8.078125 18 C 8.738281 17.722656 9.363281 17.382812 9.957031 16.980469 C 10.550781 16.578125 11.097656 16.121094 11.601562 15.609375 C 12.105469 15.097656 12.554688 14.542969 12.953125 13.941406 C 13.347656 13.339844 13.683594 12.707031 13.957031 12.039062 C 14.230469 11.371094 14.4375 10.679688 14.578125 9.972656 C 14.71875 9.261719 14.789062 8.546875 14.789062 7.824219 C 14.789062 7.761719 14.789062 7.703125 14.789062 7.644531 C 14.789062 7.703125 14.789062 7.765625 14.789062 7.824219 Z M 14.789062 7.824219 " fill-opacity="1" fill-rule="nonzero"/></g><g clip-path="url(#5fce32d28f)"><path fill="#f2f5f9" d="M 28.210938 18.925781 C 28.210938 19.242188 28.242188 19.558594 28.304688 19.871094 C 28.363281 20.183594 28.457031 20.488281 28.578125 20.785156 C 28.699219 21.078125 28.84375 21.359375 29.019531 21.625 C 29.195312 21.890625 29.394531 22.136719 29.617188 22.359375 C 29.839844 22.585938 30.082031 22.789062 30.34375 22.964844 C 30.605469 23.140625 30.878906 23.292969 31.171875 23.414062 C 31.460938 23.539062 31.761719 23.628906 32.070312 23.691406 C 32.375 23.753906 32.6875 23.785156 33.003906 23.789062 C 32.6875 23.789062 32.375 23.820312 32.070312 23.882812 C 31.761719 23.945312 31.460938 24.039062 31.171875 24.160156 C 30.878906 24.28125 30.605469 24.433594 30.34375 24.609375 C 30.082031 24.789062 29.839844 24.988281 29.617188 25.214844 C 29.394531 25.441406 29.195312 25.6875 29.019531 25.953125 C 28.84375 26.214844 28.699219 26.496094 28.578125 26.792969 C 28.457031 27.085938 28.363281 27.390625 28.304688 27.703125 C 28.242188 28.015625 28.210938 28.332031 28.210938 28.652344 L 28.210938 28.730469 C 28.210938 28.703125 28.210938 28.675781 28.210938 28.652344 C 28.210938 28.332031 28.179688 28.015625 28.117188 27.703125 C 28.054688 27.390625 27.964844 27.085938 27.84375 26.792969 C 27.722656 26.496094 27.574219 26.214844 27.398438 25.953125 C 27.222656 25.6875 27.027344 25.441406 26.804688 25.214844 C 26.582031 24.988281 26.339844 24.789062 26.078125 24.609375 C 25.816406 24.433594 25.539062 24.28125 25.25 24.160156 C 24.957031 24.039062 24.660156 23.945312 24.351562 23.882812 C 24.042969 23.820312 23.730469 23.789062 23.417969 23.789062 C 23.730469 23.785156 24.042969 23.753906 24.351562 23.691406 C 24.660156 23.628906 24.957031 23.539062 25.25 23.414062 C 25.539062 23.292969 25.816406 23.140625 26.078125 22.964844 C 26.339844 22.789062 26.582031 22.585938 26.804688 22.359375 C 27.027344 22.136719 27.222656 21.890625 27.398438 21.625 C 27.574219 21.359375 27.722656 21.078125 27.84375 20.785156 C 27.964844 20.488281 28.054688 20.183594 28.117188 19.871094 C 28.179688 19.558594 28.210938 19.242188 28.210938 18.925781 C 28.210938 18.898438 28.210938 18.871094 28.210938 18.847656 Z M 28.210938 18.925781 " fill-opacity="1" fill-rule="nonzero"/></g><path fill="#f2f5f9" d="M 25.832031 9.648438 C 25.832031 9.976562 25.894531 10.292969 26.019531 10.597656 C 26.144531 10.902344 26.320312 11.171875 26.550781 11.40625 C 26.78125 11.636719 27.042969 11.816406 27.34375 11.945312 C 27.644531 12.070312 27.957031 12.132812 28.28125 12.132812 C 27.957031 12.136719 27.644531 12.199219 27.34375 12.324219 C 27.042969 12.453125 26.777344 12.632812 26.550781 12.863281 C 26.320312 13.097656 26.140625 13.367188 26.019531 13.671875 C 25.894531 13.976562 25.832031 14.292969 25.832031 14.621094 C 25.832031 14.636719 25.832031 14.648438 25.832031 14.664062 L 25.832031 14.621094 C 25.828125 14.292969 25.765625 13.976562 25.640625 13.671875 C 25.519531 13.367188 25.339844 13.097656 25.109375 12.863281 C 24.882812 12.632812 24.617188 12.453125 24.316406 12.324219 C 24.015625 12.199219 23.703125 12.136719 23.378906 12.136719 C 23.703125 12.132812 24.015625 12.070312 24.316406 11.945312 C 24.617188 11.816406 24.882812 11.636719 25.109375 11.40625 C 25.339844 11.171875 25.519531 10.902344 25.640625 10.597656 C 25.765625 10.292969 25.828125 9.976562 25.832031 9.648438 L 25.832031 9.609375 C 25.832031 9.621094 25.832031 9.632812 25.832031 9.648438 Z M 25.832031 9.648438 " fill-opacity="1" fill-rule="nonzero"/></svg>