<svg xmlns="http://www.w3.org/2000/svg" xmlns:xlink="http://www.w3.org/1999/xlink" width="50" zoomAndPan="magnify" viewBox="0 0 37.5 37.499999" height="50" preserveAspectRatio="xMidYMid meet" version="1.0"><defs><clipPath id="4216e07205"><path d="M 0 0 L 37.007812 0 L 37.007812 37.007812 L 0 37.007812 Z M 0 0 " clip-rule="nonzero"/></clipPath><clipPath id="fb45bda3af"><path d="M 32.699219 40.664062 L -3.175781 32.695312 L 4.789062 -3.179688 L 40.667969 4.789062 Z M 32.699219 40.664062 " clip-rule="nonzero"/></clipPath><clipPath id="afd30da2e8"><path d="M 32.699219 40.664062 L -3.175781 32.695312 L 4.789062 -3.179688 L 40.667969 4.789062 Z M 32.699219 40.664062 " clip-rule="nonzero"/></clipPath><clipPath id="d3e670f969"><path d="M 0.804688 14.757812 C 0.9375 14.171875 1.097656 13.589844 1.285156 13.019531 C 1.472656 12.445312 1.6875 11.886719 1.929688 11.335938 C 2.171875 10.785156 2.441406 10.246094 2.734375 9.722656 C 3.03125 9.199219 3.351562 8.6875 3.695312 8.195312 C 4.042969 7.703125 4.410156 7.230469 4.804688 6.773438 C 5.195312 6.316406 5.609375 5.878906 6.042969 5.464844 C 6.476562 5.046875 6.933594 4.652344 7.40625 4.28125 C 7.878906 3.910156 8.371094 3.5625 8.878906 3.242188 C 9.386719 2.917969 9.90625 2.621094 10.445312 2.347656 C 10.980469 2.078125 11.53125 1.832031 12.089844 1.613281 C 12.652344 1.394531 13.222656 1.207031 13.800781 1.042969 C 14.382812 0.882812 14.96875 0.75 15.5625 0.644531 C 16.152344 0.539062 16.75 0.464844 17.351562 0.421875 C 17.949219 0.375 18.550781 0.359375 19.152344 0.371094 C 19.753906 0.386719 20.355469 0.425781 20.953125 0.5 C 21.546875 0.570312 22.140625 0.671875 22.730469 0.804688 C 23.316406 0.933594 23.894531 1.09375 24.46875 1.28125 C 25.039062 1.46875 25.601562 1.683594 26.152344 1.925781 C 26.703125 2.167969 27.238281 2.4375 27.765625 2.734375 C 28.289062 3.027344 28.796875 3.347656 29.289062 3.695312 C 29.78125 4.039062 30.257812 4.410156 30.714844 4.800781 C 31.171875 5.191406 31.605469 5.605469 32.023438 6.039062 C 32.4375 6.476562 32.832031 6.929688 33.203125 7.402344 C 33.574219 7.875 33.921875 8.367188 34.246094 8.875 C 34.570312 9.382812 34.867188 9.90625 35.136719 10.441406 C 35.410156 10.980469 35.65625 11.527344 35.871094 12.089844 C 36.089844 12.648438 36.28125 13.21875 36.441406 13.800781 C 36.605469 14.378906 36.738281 14.964844 36.839844 15.558594 C 36.945312 16.152344 37.019531 16.746094 37.066406 17.347656 C 37.113281 17.949219 37.128906 18.546875 37.113281 19.148438 C 37.101562 19.75 37.058594 20.351562 36.988281 20.949219 C 36.914062 21.546875 36.8125 22.136719 36.683594 22.726562 C 36.550781 23.3125 36.394531 23.894531 36.207031 24.464844 C 36.019531 25.035156 35.804688 25.597656 35.558594 26.148438 C 35.316406 26.699219 35.046875 27.238281 34.753906 27.761719 C 34.457031 28.285156 34.136719 28.792969 33.792969 29.289062 C 33.445312 29.78125 33.078125 30.253906 32.6875 30.710938 C 32.292969 31.167969 31.878906 31.605469 31.445312 32.019531 C 31.011719 32.4375 30.554688 32.832031 30.082031 33.203125 C 29.609375 33.574219 29.117188 33.921875 28.609375 34.242188 C 28.101562 34.566406 27.582031 34.863281 27.042969 35.136719 C 26.507812 35.40625 25.957031 35.652344 25.398438 35.871094 C 24.835938 36.089844 24.265625 36.277344 23.6875 36.441406 C 23.105469 36.601562 22.519531 36.734375 21.929688 36.839844 C 21.335938 36.941406 20.738281 37.019531 20.140625 37.0625 C 19.539062 37.109375 18.9375 37.125 18.335938 37.113281 C 17.734375 37.097656 17.136719 37.054688 16.539062 36.984375 C 15.941406 36.910156 15.347656 36.808594 14.761719 36.679688 C 14.171875 36.550781 13.59375 36.390625 13.019531 36.203125 C 12.449219 36.015625 11.886719 35.800781 11.335938 35.558594 C 10.785156 35.316406 10.25 35.046875 9.726562 34.75 C 9.199219 34.457031 8.691406 34.136719 8.199219 33.789062 C 7.707031 33.445312 7.230469 33.074219 6.773438 32.683594 C 6.316406 32.292969 5.882812 31.878906 5.464844 31.441406 C 5.050781 31.007812 4.65625 30.554688 4.285156 30.082031 C 3.914062 29.605469 3.566406 29.117188 3.242188 28.609375 C 2.921875 28.101562 2.621094 27.578125 2.351562 27.042969 C 2.078125 26.503906 1.835938 25.957031 1.617188 25.394531 C 1.398438 24.832031 1.207031 24.261719 1.046875 23.683594 C 0.882812 23.105469 0.75 22.519531 0.648438 21.925781 C 0.542969 21.332031 0.46875 20.738281 0.421875 20.136719 C 0.375 19.535156 0.359375 18.933594 0.375 18.332031 C 0.386719 17.730469 0.429688 17.132812 0.503906 16.535156 C 0.574219 15.9375 0.675781 15.34375 0.804688 14.757812 Z M 0.804688 14.757812 " clip-rule="nonzero"/></clipPath><linearGradient x1="-0.0937096" gradientTransform="matrix(-35.875702, -7.968444, 7.968444, -35.875702, 32.698108, 40.664008)" y1="-0.0927909" x2="1.101823" gradientUnits="userSpaceOnUse" y2="1.091021" id="6d220676ca"><stop stop-opacity="1" stop-color="rgb(36.499023%, 82.699585%, 94.898987%)" offset="0"/><stop stop-opacity="1" stop-color="rgb(36.499023%, 82.699585%, 94.898987%)" offset="0.0625"/><stop stop-opacity="1" stop-color="rgb(36.499023%, 82.699585%, 94.898987%)" offset="0.078125"/><stop stop-opacity="1" stop-color="rgb(36.680603%, 82.493591%, 94.898987%)" offset="0.0820313"/><stop stop-opacity="1" stop-color="rgb(36.863708%, 82.289124%, 94.898987%)" offset="0.0859375"/><stop stop-opacity="1" stop-color="rgb(37.052917%, 82.077026%, 94.898987%)" offset="0.0898438"/><stop stop-opacity="1" stop-color="rgb(37.242126%, 81.864929%, 94.898987%)" offset="0.09375"/><stop stop-opacity="1" stop-color="rgb(37.42981%, 81.652832%, 94.898987%)" offset="0.0976562"/><stop stop-opacity="1" stop-color="rgb(37.619019%, 81.440735%, 94.898987%)" offset="0.101563"/><stop stop-opacity="1" stop-color="rgb(37.808228%, 81.228638%, 94.898987%)" offset="0.105469"/><stop stop-opacity="1" stop-color="rgb(37.997437%, 81.016541%, 94.898987%)" offset="0.109375"/><stop stop-opacity="1" stop-color="rgb(38.18512%, 80.802917%, 94.898987%)" offset="0.113281"/><stop stop-opacity="1" stop-color="rgb(38.374329%, 80.59082%, 94.898987%)" offset="0.117188"/><stop stop-opacity="1" stop-color="rgb(38.562012%, 80.378723%, 94.898987%)" offset="0.121094"/><stop stop-opacity="1" stop-color="rgb(38.751221%, 80.166626%, 94.898987%)" offset="0.125"/><stop stop-opacity="1" stop-color="rgb(38.94043%, 79.954529%, 94.898987%)" offset="0.128906"/><stop stop-opacity="1" stop-color="rgb(39.129639%, 79.742432%, 94.898987%)" offset="0.132812"/><stop stop-opacity="1" stop-color="rgb(39.317322%, 79.530334%, 94.898987%)" offset="0.136719"/><stop stop-opacity="1" stop-color="rgb(39.506531%, 79.318237%, 94.898987%)" offset="0.140625"/><stop stop-opacity="1" stop-color="rgb(39.69574%, 79.10614%, 94.898987%)" offset="0.144531"/><stop stop-opacity="1" stop-color="rgb(39.884949%, 78.894043%, 94.898987%)" offset="0.148438"/><stop stop-opacity="1" stop-color="rgb(40.072632%, 78.681946%, 94.898987%)" offset="0.152344"/><stop stop-opacity="1" stop-color="rgb(40.261841%, 78.469849%, 94.898987%)" offset="0.15625"/><stop stop-opacity="1" stop-color="rgb(40.449524%, 78.257751%, 94.898987%)" offset="0.160156"/><stop stop-opacity="1" stop-color="rgb(40.638733%, 78.045654%, 94.898987%)" offset="0.164063"/><stop stop-opacity="1" stop-color="rgb(40.827942%, 77.833557%, 94.898987%)" offset="0.167969"/><stop stop-opacity="1" stop-color="rgb(41.017151%, 77.62146%, 94.898987%)" offset="0.171875"/><stop stop-opacity="1" stop-color="rgb(41.204834%, 77.409363%, 94.898987%)" offset="0.175781"/><stop stop-opacity="1" stop-color="rgb(41.394043%, 77.197266%, 94.898987%)" offset="0.179688"/><stop stop-opacity="1" stop-color="rgb(41.583252%, 76.985168%, 94.898987%)" offset="0.183594"/><stop stop-opacity="1" stop-color="rgb(41.772461%, 76.773071%, 94.898987%)" offset="0.1875"/><stop stop-opacity="1" stop-color="rgb(41.960144%, 76.560974%, 94.898987%)" offset="0.191406"/><stop stop-opacity="1" stop-color="rgb(42.149353%, 76.348877%, 94.898987%)" offset="0.195313"/><stop stop-opacity="1" stop-color="rgb(42.337036%, 76.135254%, 94.898987%)" offset="0.199219"/><stop stop-opacity="1" stop-color="rgb(42.526245%, 75.923157%, 94.898987%)" offset="0.203125"/><stop stop-opacity="1" stop-color="rgb(42.715454%, 75.71106%, 94.898987%)" offset="0.207031"/><stop stop-opacity="1" stop-color="rgb(42.904663%, 75.498962%, 94.898987%)" offset="0.210938"/><stop stop-opacity="1" stop-color="rgb(43.092346%, 75.286865%, 94.898987%)" offset="0.214844"/><stop stop-opacity="1" stop-color="rgb(43.281555%, 75.074768%, 94.898987%)" offset="0.21875"/><stop stop-opacity="1" stop-color="rgb(43.470764%, 74.862671%, 94.898987%)" offset="0.222656"/><stop stop-opacity="1" stop-color="rgb(43.659973%, 74.650574%, 94.898987%)" offset="0.226562"/><stop stop-opacity="1" stop-color="rgb(43.847656%, 74.438477%, 94.898987%)" offset="0.230469"/><stop stop-opacity="1" stop-color="rgb(44.036865%, 74.226379%, 94.898987%)" offset="0.234375"/><stop stop-opacity="1" stop-color="rgb(44.224548%, 74.014282%, 94.898987%)" offset="0.238281"/><stop stop-opacity="1" stop-color="rgb(44.413757%, 73.802185%, 94.898987%)" offset="0.242188"/><stop stop-opacity="1" stop-color="rgb(44.602966%, 73.590088%, 94.898987%)" offset="0.246094"/><stop stop-opacity="1" stop-color="rgb(44.792175%, 73.377991%, 94.898987%)" offset="0.25"/><stop stop-opacity="1" stop-color="rgb(44.979858%, 73.165894%, 94.898987%)" offset="0.253906"/><stop stop-opacity="1" stop-color="rgb(45.169067%, 72.953796%, 94.898987%)" offset="0.257813"/><stop stop-opacity="1" stop-color="rgb(45.358276%, 72.741699%, 94.898987%)" offset="0.261719"/><stop stop-opacity="1" stop-color="rgb(45.547485%, 72.529602%, 94.898987%)" offset="0.265625"/><stop stop-opacity="1" stop-color="rgb(45.735168%, 72.317505%, 94.898987%)" offset="0.269531"/><stop stop-opacity="1" stop-color="rgb(45.924377%, 72.105408%, 94.898987%)" offset="0.273438"/><stop stop-opacity="1" stop-color="rgb(46.112061%, 71.891785%, 94.898987%)" offset="0.277344"/><stop stop-opacity="1" stop-color="rgb(46.30127%, 71.679688%, 94.898987%)" offset="0.28125"/><stop stop-opacity="1" stop-color="rgb(46.490479%, 71.46759%, 94.898987%)" offset="0.285156"/><stop stop-opacity="1" stop-color="rgb(46.679688%, 71.255493%, 94.898987%)" offset="0.289062"/><stop stop-opacity="1" stop-color="rgb(46.867371%, 71.043396%, 94.898987%)" offset="0.292969"/><stop stop-opacity="1" stop-color="rgb(47.05658%, 70.831299%, 94.898987%)" offset="0.296875"/><stop stop-opacity="1" stop-color="rgb(47.244263%, 70.619202%, 94.898987%)" offset="0.300781"/><stop stop-opacity="1" stop-color="rgb(47.433472%, 70.407104%, 94.898987%)" offset="0.304688"/><stop stop-opacity="1" stop-color="rgb(47.622681%, 70.195007%, 94.898987%)" offset="0.308594"/><stop stop-opacity="1" stop-color="rgb(47.81189%, 69.98291%, 94.898987%)" offset="0.3125"/><stop stop-opacity="1" stop-color="rgb(47.999573%, 69.770813%, 94.898987%)" offset="0.316406"/><stop stop-opacity="1" stop-color="rgb(48.188782%, 69.558716%, 94.898987%)" offset="0.320312"/><stop stop-opacity="1" stop-color="rgb(48.377991%, 69.346619%, 94.898987%)" offset="0.324219"/><stop stop-opacity="1" stop-color="rgb(48.5672%, 69.134521%, 94.898987%)" offset="0.328125"/><stop stop-opacity="1" stop-color="rgb(48.754883%, 68.922424%, 94.898987%)" offset="0.332031"/><stop stop-opacity="1" stop-color="rgb(48.944092%, 68.710327%, 94.898987%)" offset="0.335938"/><stop stop-opacity="1" stop-color="rgb(49.131775%, 68.49823%, 94.898987%)" offset="0.339844"/><stop stop-opacity="1" stop-color="rgb(49.320984%, 68.286133%, 94.898987%)" offset="0.34375"/><stop stop-opacity="1" stop-color="rgb(49.510193%, 68.074036%, 94.898987%)" offset="0.347656"/><stop stop-opacity="1" stop-color="rgb(49.699402%, 67.861938%, 94.898987%)" offset="0.351563"/><stop stop-opacity="1" stop-color="rgb(49.887085%, 67.648315%, 94.898987%)" offset="0.355469"/><stop stop-opacity="1" stop-color="rgb(50.076294%, 67.436218%, 94.898987%)" offset="0.359375"/><stop stop-opacity="1" stop-color="rgb(50.265503%, 67.224121%, 94.898987%)" offset="0.363281"/><stop stop-opacity="1" stop-color="rgb(50.454712%, 67.012024%, 94.898987%)" offset="0.367188"/><stop stop-opacity="1" stop-color="rgb(50.642395%, 66.799927%, 94.898987%)" offset="0.371094"/><stop stop-opacity="1" stop-color="rgb(50.831604%, 66.58783%, 94.898987%)" offset="0.375"/><stop stop-opacity="1" stop-color="rgb(51.019287%, 66.375732%, 94.898987%)" offset="0.378906"/><stop stop-opacity="1" stop-color="rgb(51.208496%, 66.163635%, 94.898987%)" offset="0.382812"/><stop stop-opacity="1" stop-color="rgb(51.397705%, 65.951538%, 94.898987%)" offset="0.386719"/><stop stop-opacity="1" stop-color="rgb(51.586914%, 65.739441%, 94.898987%)" offset="0.390625"/><stop stop-opacity="1" stop-color="rgb(51.774597%, 65.527344%, 94.898987%)" offset="0.394531"/><stop stop-opacity="1" stop-color="rgb(51.963806%, 65.315247%, 94.898987%)" offset="0.398438"/><stop stop-opacity="1" stop-color="rgb(52.153015%, 65.103149%, 94.898987%)" offset="0.402344"/><stop stop-opacity="1" stop-color="rgb(52.342224%, 64.891052%, 94.898987%)" offset="0.40625"/><stop stop-opacity="1" stop-color="rgb(52.529907%, 64.678955%, 94.898987%)" offset="0.410156"/><stop stop-opacity="1" stop-color="rgb(52.719116%, 64.466858%, 94.898987%)" offset="0.414062"/><stop stop-opacity="1" stop-color="rgb(52.906799%, 64.254761%, 94.898987%)" offset="0.417969"/><stop stop-opacity="1" stop-color="rgb(53.096008%, 64.042664%, 94.898987%)" offset="0.421875"/><stop stop-opacity="1" stop-color="rgb(53.285217%, 63.830566%, 94.898987%)" offset="0.425781"/><stop stop-opacity="1" stop-color="rgb(53.474426%, 63.618469%, 94.898987%)" offset="0.429688"/><stop stop-opacity="1" stop-color="rgb(53.662109%, 63.406372%, 94.898987%)" offset="0.433594"/><stop stop-opacity="1" stop-color="rgb(53.851318%, 63.194275%, 94.898987%)" offset="0.4375"/><stop stop-opacity="1" stop-color="rgb(54.040527%, 62.980652%, 94.898987%)" offset="0.441406"/><stop stop-opacity="1" stop-color="rgb(54.229736%, 62.768555%, 94.898987%)" offset="0.445313"/><stop stop-opacity="1" stop-color="rgb(54.417419%, 62.556458%, 94.898987%)" offset="0.449219"/><stop stop-opacity="1" stop-color="rgb(54.606628%, 62.34436%, 94.898987%)" offset="0.453125"/><stop stop-opacity="1" stop-color="rgb(54.794312%, 62.132263%, 94.898987%)" offset="0.457031"/><stop stop-opacity="1" stop-color="rgb(54.983521%, 61.920166%, 94.898987%)" offset="0.460938"/><stop stop-opacity="1" stop-color="rgb(55.172729%, 61.708069%, 94.898987%)" offset="0.464844"/><stop stop-opacity="1" stop-color="rgb(55.361938%, 61.495972%, 94.898987%)" offset="0.46875"/><stop stop-opacity="1" stop-color="rgb(55.549622%, 61.283875%, 94.898987%)" offset="0.472656"/><stop stop-opacity="1" stop-color="rgb(55.738831%, 61.071777%, 94.898987%)" offset="0.476562"/><stop stop-opacity="1" stop-color="rgb(55.92804%, 60.85968%, 94.898987%)" offset="0.480469"/><stop stop-opacity="1" stop-color="rgb(56.117249%, 60.647583%, 94.898987%)" offset="0.484375"/><stop stop-opacity="1" stop-color="rgb(56.304932%, 60.435486%, 94.898987%)" offset="0.488281"/><stop stop-opacity="1" stop-color="rgb(56.494141%, 60.223389%, 94.898987%)" offset="0.492188"/><stop stop-opacity="1" stop-color="rgb(56.681824%, 60.011292%, 94.898987%)" offset="0.496094"/><stop stop-opacity="1" stop-color="rgb(56.871033%, 59.799194%, 94.898987%)" offset="0.5"/><stop stop-opacity="1" stop-color="rgb(57.060242%, 59.587097%, 94.898987%)" offset="0.503906"/><stop stop-opacity="1" stop-color="rgb(57.249451%, 59.375%, 94.898987%)" offset="0.507812"/><stop stop-opacity="1" stop-color="rgb(57.437134%, 59.162903%, 94.898987%)" offset="0.511719"/><stop stop-opacity="1" stop-color="rgb(57.626343%, 58.950806%, 94.898987%)" offset="0.515625"/><stop stop-opacity="1" stop-color="rgb(57.815552%, 58.737183%, 94.898987%)" offset="0.519531"/><stop stop-opacity="1" stop-color="rgb(58.004761%, 58.525085%, 94.898987%)" offset="0.523438"/><stop stop-opacity="1" stop-color="rgb(58.192444%, 58.312988%, 94.898987%)" offset="0.527344"/><stop stop-opacity="1" stop-color="rgb(58.381653%, 58.100891%, 94.898987%)" offset="0.53125"/><stop stop-opacity="1" stop-color="rgb(58.569336%, 57.888794%, 94.898987%)" offset="0.535156"/><stop stop-opacity="1" stop-color="rgb(58.758545%, 57.676697%, 94.898987%)" offset="0.539062"/><stop stop-opacity="1" stop-color="rgb(58.947754%, 57.4646%, 94.898987%)" offset="0.542969"/><stop stop-opacity="1" stop-color="rgb(59.136963%, 57.252502%, 94.898987%)" offset="0.546875"/><stop stop-opacity="1" stop-color="rgb(59.324646%, 57.040405%, 94.898987%)" offset="0.550781"/><stop stop-opacity="1" stop-color="rgb(59.513855%, 56.828308%, 94.898987%)" offset="0.554687"/><stop stop-opacity="1" stop-color="rgb(59.703064%, 56.616211%, 94.898987%)" offset="0.558594"/><stop stop-opacity="1" stop-color="rgb(59.892273%, 56.404114%, 94.898987%)" offset="0.5625"/><stop stop-opacity="1" stop-color="rgb(60.079956%, 56.192017%, 94.898987%)" offset="0.566406"/><stop stop-opacity="1" stop-color="rgb(60.269165%, 55.979919%, 94.898987%)" offset="0.570312"/><stop stop-opacity="1" stop-color="rgb(60.456848%, 55.767822%, 94.898987%)" offset="0.574219"/><stop stop-opacity="1" stop-color="rgb(60.646057%, 55.555725%, 94.898987%)" offset="0.578125"/><stop stop-opacity="1" stop-color="rgb(60.835266%, 55.343628%, 94.898987%)" offset="0.582031"/><stop stop-opacity="1" stop-color="rgb(61.024475%, 55.131531%, 94.898987%)" offset="0.585938"/><stop stop-opacity="1" stop-color="rgb(61.212158%, 54.919434%, 94.898987%)" offset="0.589844"/><stop stop-opacity="1" stop-color="rgb(61.401367%, 54.707336%, 94.898987%)" offset="0.59375"/><stop stop-opacity="1" stop-color="rgb(61.590576%, 54.495239%, 94.898987%)" offset="0.597656"/><stop stop-opacity="1" stop-color="rgb(61.779785%, 54.283142%, 94.898987%)" offset="0.601562"/><stop stop-opacity="1" stop-color="rgb(61.967468%, 54.069519%, 94.898987%)" offset="0.605469"/><stop stop-opacity="1" stop-color="rgb(62.156677%, 53.857422%, 94.898987%)" offset="0.609375"/><stop stop-opacity="1" stop-color="rgb(62.34436%, 53.645325%, 94.898987%)" offset="0.613281"/><stop stop-opacity="1" stop-color="rgb(62.533569%, 53.433228%, 94.898987%)" offset="0.617188"/><stop stop-opacity="1" stop-color="rgb(62.722778%, 53.22113%, 94.898987%)" offset="0.621094"/><stop stop-opacity="1" stop-color="rgb(62.911987%, 53.009033%, 94.898987%)" offset="0.625"/><stop stop-opacity="1" stop-color="rgb(63.09967%, 52.796936%, 94.898987%)" offset="0.628906"/><stop stop-opacity="1" stop-color="rgb(63.288879%, 52.584839%, 94.898987%)" offset="0.632812"/><stop stop-opacity="1" stop-color="rgb(63.478088%, 52.372742%, 94.898987%)" offset="0.636719"/><stop stop-opacity="1" stop-color="rgb(63.667297%, 52.160645%, 94.898987%)" offset="0.640625"/><stop stop-opacity="1" stop-color="rgb(63.85498%, 51.948547%, 94.898987%)" offset="0.644531"/><stop stop-opacity="1" stop-color="rgb(64.044189%, 51.73645%, 94.898987%)" offset="0.648438"/><stop stop-opacity="1" stop-color="rgb(64.231873%, 51.524353%, 94.898987%)" offset="0.652344"/><stop stop-opacity="1" stop-color="rgb(64.421082%, 51.312256%, 94.898987%)" offset="0.65625"/><stop stop-opacity="1" stop-color="rgb(64.610291%, 51.100159%, 94.898987%)" offset="0.660156"/><stop stop-opacity="1" stop-color="rgb(64.7995%, 50.888062%, 94.898987%)" offset="0.664062"/><stop stop-opacity="1" stop-color="rgb(64.987183%, 50.675964%, 94.898987%)" offset="0.667969"/><stop stop-opacity="1" stop-color="rgb(65.176392%, 50.463867%, 94.898987%)" offset="0.671875"/><stop stop-opacity="1" stop-color="rgb(65.365601%, 50.25177%, 94.898987%)" offset="0.675781"/><stop stop-opacity="1" stop-color="rgb(65.55481%, 50.039673%, 94.898987%)" offset="0.679688"/><stop stop-opacity="1" stop-color="rgb(65.742493%, 49.82605%, 94.898987%)" offset="0.683594"/><stop stop-opacity="1" stop-color="rgb(65.931702%, 49.613953%, 94.898987%)" offset="0.6875"/><stop stop-opacity="1" stop-color="rgb(66.119385%, 49.401855%, 94.898987%)" offset="0.691406"/><stop stop-opacity="1" stop-color="rgb(66.308594%, 49.189758%, 94.898987%)" offset="0.695312"/><stop stop-opacity="1" stop-color="rgb(66.497803%, 48.977661%, 94.898987%)" offset="0.699219"/><stop stop-opacity="1" stop-color="rgb(66.687012%, 48.765564%, 94.898987%)" offset="0.703125"/><stop stop-opacity="1" stop-color="rgb(66.874695%, 48.553467%, 94.898987%)" offset="0.707031"/><stop stop-opacity="1" stop-color="rgb(67.063904%, 48.34137%, 94.898987%)" offset="0.710938"/><stop stop-opacity="1" stop-color="rgb(67.253113%, 48.129272%, 94.898987%)" offset="0.714844"/><stop stop-opacity="1" stop-color="rgb(67.442322%, 47.917175%, 94.898987%)" offset="0.71875"/><stop stop-opacity="1" stop-color="rgb(67.630005%, 47.705078%, 94.898987%)" offset="0.722656"/><stop stop-opacity="1" stop-color="rgb(67.819214%, 47.492981%, 94.898987%)" offset="0.726562"/><stop stop-opacity="1" stop-color="rgb(68.006897%, 47.280884%, 94.898987%)" offset="0.730469"/><stop stop-opacity="1" stop-color="rgb(68.196106%, 47.068787%, 94.898987%)" offset="0.734375"/><stop stop-opacity="1" stop-color="rgb(68.385315%, 46.856689%, 94.898987%)" offset="0.738281"/><stop stop-opacity="1" stop-color="rgb(68.574524%, 46.644592%, 94.898987%)" offset="0.742188"/><stop stop-opacity="1" stop-color="rgb(68.762207%, 46.432495%, 94.898987%)" offset="0.746094"/><stop stop-opacity="1" stop-color="rgb(68.951416%, 46.220398%, 94.898987%)" offset="0.75"/><stop stop-opacity="1" stop-color="rgb(69.140625%, 46.008301%, 94.898987%)" offset="0.753906"/><stop stop-opacity="1" stop-color="rgb(69.329834%, 45.796204%, 94.898987%)" offset="0.757812"/><stop stop-opacity="1" stop-color="rgb(69.517517%, 45.582581%, 94.898987%)" offset="0.761719"/><stop stop-opacity="1" stop-color="rgb(69.706726%, 45.370483%, 94.898987%)" offset="0.765625"/><stop stop-opacity="1" stop-color="rgb(69.894409%, 45.158386%, 94.898987%)" offset="0.769531"/><stop stop-opacity="1" stop-color="rgb(70.083618%, 44.946289%, 94.898987%)" offset="0.773438"/><stop stop-opacity="1" stop-color="rgb(70.272827%, 44.734192%, 94.898987%)" offset="0.777344"/><stop stop-opacity="1" stop-color="rgb(70.462036%, 44.522095%, 94.898987%)" offset="0.78125"/><stop stop-opacity="1" stop-color="rgb(70.649719%, 44.309998%, 94.898987%)" offset="0.785156"/><stop stop-opacity="1" stop-color="rgb(70.838928%, 44.0979%, 94.898987%)" offset="0.789062"/><stop stop-opacity="1" stop-color="rgb(71.028137%, 43.885803%, 94.898987%)" offset="0.792969"/><stop stop-opacity="1" stop-color="rgb(71.217346%, 43.673706%, 94.898987%)" offset="0.796875"/><stop stop-opacity="1" stop-color="rgb(71.405029%, 43.461609%, 94.898987%)" offset="0.800781"/><stop stop-opacity="1" stop-color="rgb(71.594238%, 43.249512%, 94.898987%)" offset="0.804688"/><stop stop-opacity="1" stop-color="rgb(71.781921%, 43.037415%, 94.898987%)" offset="0.808594"/><stop stop-opacity="1" stop-color="rgb(71.97113%, 42.825317%, 94.898987%)" offset="0.8125"/><stop stop-opacity="1" stop-color="rgb(72.160339%, 42.61322%, 94.898987%)" offset="0.816406"/><stop stop-opacity="1" stop-color="rgb(72.349548%, 42.401123%, 94.898987%)" offset="0.820312"/><stop stop-opacity="1" stop-color="rgb(72.537231%, 42.189026%, 94.898987%)" offset="0.824219"/><stop stop-opacity="1" stop-color="rgb(72.72644%, 41.976929%, 94.898987%)" offset="0.828125"/><stop stop-opacity="1" stop-color="rgb(72.915649%, 41.764832%, 94.898987%)" offset="0.832031"/><stop stop-opacity="1" stop-color="rgb(73.104858%, 41.552734%, 94.898987%)" offset="0.835938"/><stop stop-opacity="1" stop-color="rgb(73.292542%, 41.340637%, 94.898987%)" offset="0.839844"/><stop stop-opacity="1" stop-color="rgb(73.48175%, 41.12854%, 94.898987%)" offset="0.84375"/><stop stop-opacity="1" stop-color="rgb(73.669434%, 40.914917%, 94.898987%)" offset="0.847656"/><stop stop-opacity="1" stop-color="rgb(73.858643%, 40.70282%, 94.898987%)" offset="0.851562"/><stop stop-opacity="1" stop-color="rgb(74.047852%, 40.490723%, 94.898987%)" offset="0.855469"/><stop stop-opacity="1" stop-color="rgb(74.237061%, 40.278625%, 94.898987%)" offset="0.859375"/><stop stop-opacity="1" stop-color="rgb(74.424744%, 40.066528%, 94.898987%)" offset="0.863281"/><stop stop-opacity="1" stop-color="rgb(74.613953%, 39.854431%, 94.898987%)" offset="0.867188"/><stop stop-opacity="1" stop-color="rgb(74.801636%, 39.642334%, 94.898987%)" offset="0.871094"/><stop stop-opacity="1" stop-color="rgb(74.990845%, 39.430237%, 94.898987%)" offset="0.875"/><stop stop-opacity="1" stop-color="rgb(75.180054%, 39.21814%, 94.898987%)" offset="0.878906"/><stop stop-opacity="1" stop-color="rgb(75.369263%, 39.006042%, 94.898987%)" offset="0.882813"/><stop stop-opacity="1" stop-color="rgb(75.556946%, 38.793945%, 94.898987%)" offset="0.886719"/><stop stop-opacity="1" stop-color="rgb(75.746155%, 38.581848%, 94.898987%)" offset="0.890625"/><stop stop-opacity="1" stop-color="rgb(75.935364%, 38.369751%, 94.898987%)" offset="0.894531"/><stop stop-opacity="1" stop-color="rgb(76.124573%, 38.157654%, 94.898987%)" offset="0.898438"/><stop stop-opacity="1" stop-color="rgb(76.312256%, 37.945557%, 94.898987%)" offset="0.902344"/><stop stop-opacity="1" stop-color="rgb(76.501465%, 37.733459%, 94.898987%)" offset="0.90625"/><stop stop-opacity="1" stop-color="rgb(76.689148%, 37.521362%, 94.898987%)" offset="0.910156"/><stop stop-opacity="1" stop-color="rgb(76.878357%, 37.309265%, 94.898987%)" offset="0.914063"/><stop stop-opacity="1" stop-color="rgb(77.067566%, 37.097168%, 94.898987%)" offset="0.917969"/><stop stop-opacity="1" stop-color="rgb(77.256775%, 36.885071%, 94.898987%)" offset="0.921875"/><stop stop-opacity="1" stop-color="rgb(77.427673%, 36.691284%, 94.898987%)" offset="0.9375"/><stop stop-opacity="1" stop-color="rgb(77.598572%, 36.499023%, 94.898987%)" offset="1"/></linearGradient><clipPath id="5ffccbbbc6"><path d="M 1.570312 6.433594 L 27 6.433594 L 27 31.183594 L 1.570312 31.183594 Z M 1.570312 6.433594 " clip-rule="nonzero"/></clipPath><clipPath id="ca39d78553"><path d="M 21 18 L 33.820312 18 L 33.820312 31.183594 L 21 31.183594 Z M 21 18 " clip-rule="nonzero"/></clipPath></defs><g clip-path="url(#4216e07205)"><g clip-path="url(#fb45bda3af)"><g clip-path="url(#afd30da2e8)"><g clip-path="url(#d3e670f969)"><path fill="url(#6d220676ca)" d="M 35.285156 44.761719 L 44.765625 2.082031 L 2.082031 -7.398438 L -7.398438 35.285156 Z M 35.285156 44.761719 " fill-rule="nonzero"/></g></g></g></g><g clip-path="url(#5ffccbbbc6)"><path fill="#ffffff" d="M 14.113281 13.027344 C 14.1875 13.71875 14.375 14.378906 14.675781 15.003906 C 14.976562 15.632812 15.371094 16.191406 15.863281 16.683594 C 16.351562 17.171875 16.910156 17.570312 17.535156 17.871094 C 18.160156 18.171875 18.816406 18.359375 19.507812 18.433594 C 21.6875 18.652344 23.871094 18.753906 26.058594 18.734375 C 23.871094 18.714844 21.6875 18.816406 19.507812 19.035156 C 18.816406 19.109375 18.160156 19.296875 17.535156 19.597656 C 16.910156 19.898438 16.351562 20.292969 15.863281 20.785156 C 15.371094 21.277344 14.976562 21.835938 14.675781 22.464844 C 14.375 23.089844 14.1875 23.75 14.113281 24.441406 C 13.898438 26.625 13.796875 28.816406 13.816406 31.011719 C 13.832031 28.816406 13.734375 26.625 13.515625 24.441406 C 13.441406 23.75 13.253906 23.089844 12.953125 22.464844 C 12.65625 21.835938 12.257812 21.277344 11.769531 20.785156 C 11.277344 20.292969 10.722656 19.898438 10.09375 19.597656 C 9.46875 19.296875 8.8125 19.109375 8.125 19.035156 C 5.945312 18.816406 3.761719 18.714844 1.570312 18.734375 C 3.761719 18.753906 5.945312 18.652344 8.125 18.433594 C 8.8125 18.359375 9.46875 18.171875 10.09375 17.871094 C 10.71875 17.570312 11.277344 17.171875 11.769531 16.683594 C 12.257812 16.191406 12.652344 15.632812 12.953125 15.003906 C 13.253906 14.378906 13.441406 13.71875 13.515625 13.027344 C 13.734375 10.84375 13.832031 8.652344 13.816406 6.457031 C 13.796875 8.652344 13.898438 10.84375 14.113281 13.027344 Z M 14.113281 13.027344 " fill-opacity="1" fill-rule="nonzero"/></g><g clip-path="url(#ca39d78553)"><path fill="#ffffff" d="M 27.785156 22.058594 C 27.820312 22.410156 27.917969 22.742188 28.066406 23.058594 C 28.21875 23.375 28.421875 23.660156 28.667969 23.90625 C 28.917969 24.15625 29.199219 24.359375 29.515625 24.507812 C 29.832031 24.660156 30.164062 24.757812 30.511719 24.796875 C 31.617188 24.90625 32.71875 24.957031 33.828125 24.945312 C 32.71875 24.9375 31.617188 24.988281 30.511719 25.097656 C 30.164062 25.136719 29.832031 25.230469 29.515625 25.382812 C 29.199219 25.535156 28.917969 25.734375 28.667969 25.984375 C 28.421875 26.234375 28.21875 26.515625 28.066406 26.835938 C 27.917969 27.152344 27.820312 27.484375 27.785156 27.835938 C 27.671875 28.941406 27.625 30.046875 27.632812 31.160156 C 27.640625 30.046875 27.589844 28.941406 27.480469 27.835938 C 27.441406 27.484375 27.347656 27.152344 27.195312 26.835938 C 27.042969 26.515625 26.84375 26.234375 26.597656 25.984375 C 26.347656 25.734375 26.066406 25.535156 25.75 25.382812 C 25.433594 25.230469 25.101562 25.136719 24.75 25.097656 C 23.648438 24.988281 22.542969 24.9375 21.4375 24.945312 C 22.542969 24.957031 23.648438 24.90625 24.75 24.796875 C 25.101562 24.757812 25.433594 24.660156 25.75 24.507812 C 26.066406 24.359375 26.347656 24.15625 26.597656 23.90625 C 26.84375 23.660156 27.042969 23.375 27.195312 23.058594 C 27.347656 22.742188 27.441406 22.410156 27.480469 22.058594 C 27.589844 20.953125 27.640625 19.84375 27.632812 18.734375 C 27.625 19.84375 27.675781 20.953125 27.785156 22.058594 Z M 27.785156 22.058594 " fill-opacity="1" fill-rule="nonzero"/></g><path fill="#ffffff" d="M 23.125 9.800781 C 23.175781 10.238281 23.355469 10.617188 23.667969 10.929688 C 23.976562 11.242188 24.355469 11.421875 24.792969 11.46875 C 25.464844 11.535156 26.140625 11.566406 26.816406 11.5625 C 26.140625 11.558594 25.464844 11.585938 24.792969 11.65625 C 24.355469 11.703125 23.976562 11.882812 23.667969 12.195312 C 23.355469 12.507812 23.175781 12.886719 23.125 13.324219 C 23.058594 14 23.027344 14.675781 23.035156 15.355469 C 23.039062 14.675781 23.007812 14 22.941406 13.324219 C 22.894531 12.886719 22.714844 12.507812 22.402344 12.195312 C 22.089844 11.882812 21.714844 11.703125 21.273438 11.65625 C 20.601562 11.585938 19.925781 11.558594 19.25 11.5625 C 19.925781 11.566406 20.601562 11.535156 21.273438 11.46875 C 21.714844 11.421875 22.089844 11.242188 22.402344 10.929688 C 22.714844 10.613281 22.894531 10.238281 22.941406 9.800781 C 23.007812 9.125 23.039062 8.445312 23.035156 7.769531 C 23.027344 8.445312 23.058594 9.125 23.125 9.800781 Z M 23.125 9.800781 " fill-opacity="1" fill-rule="nonzero"/></svg>